<svg width="12" height="34" viewBox="0 0 12 34" fill="none" xmlns="http://www.w3.org/2000/svg">
<path d="M5.93177 33.448C4.43844 33.448 3.2011 32.9787 2.21977 32.04C1.2811 31.1013 0.81177 29.9707 0.81177 28.648C0.81177 27.2827 1.2811 26.1307 2.21977 25.192C3.2011 24.2533 4.43844 23.784 5.93177 23.784C7.4251 23.784 8.6411 24.2533 9.57977 25.192C10.5611 26.1307 11.0518 27.2827 11.0518 28.648C11.0518 29.9707 10.5611 31.1013 9.57977 32.04C8.6411 32.9787 7.4251 33.448 5.93177 33.448ZM5.93177 10.152C4.43844 10.152 3.2011 9.68267 2.21977 8.744C1.2811 7.80533 0.81177 6.67467 0.81177 5.352C0.81177 3.98667 1.2811 2.83467 2.21977 1.896C3.2011 0.957332 4.43844 0.487999 5.93177 0.487999C7.4251 0.487999 8.6411 0.957332 9.57977 1.896C10.5611 2.83467 11.0518 3.98667 11.0518 5.352C11.0518 6.67467 10.5611 7.80533 9.57977 8.744C8.6411 9.68267 7.4251 10.152 5.93177 10.152Z" fill="white"/>
</svg>
